<svg title="LTO Noord" viewBox="0 0 100 120" style="background-color: #ffffff00" version="1.1"
	xmlns="http://www.w3.org/2000/svg" xmlns:xlink="http://www.w3.org/1999/xlink" xml:space="preserve"
	x="0px" y="0px" width="100px" height="120px">
	<g id="Laag%201">
		<rect x="0" y="90" width="100" height="30" fill="#ffffff" />
		<path d="M 90 87.5547 L 10 87.5547 L 10 21.2378 C 17.0908 20.208 29.6582 19.312 46.689 19.2168 L 45.3608 23.374 L 54.4805 23.3628 L 53.2217 19.2168 C 70.4434 19.3271 83.0479 20.2568 89.9883 21.3081 L 90 87.5547 Z" fill="#4bb4e7" />
		<path d="M 10 89.5068 L 90 89.5068 L 90 120 L 10 120 L 10 89.5068 Z" fill="#07612c" />
		<path d="M 24.8789 112.3623 C 24.7168 109.3594 24.6719 103.3896 24.6719 95.0381 L 26.8032 95.0381 L 26.8032 115.3398 L 23.8008 115.3398 C 21.207 106.7939 19.4712 100.9375 18.7959 98.0156 L 18.6992 98.0156 C 18.8091 100.9609 18.8579 106.8779 18.8579 115.3398 L 16.7241 115.3398 L 16.7241 95.0381 L 19.7578 95.0381 C 22.3301 103.3965 24.0649 109.3779 24.7813 112.3623 L 24.8789 112.3623 Z" fill="#ffffff" />
		<path d="M 31.1538 105.1641 C 31.1538 97.4756 33.207 94.6348 36.4512 94.6348 C 39.689 94.6348 41.7441 97.4766 41.7441 105.1973 C 41.7441 112.8994 39.689 115.7432 36.4512 115.7432 C 33.207 115.7432 31.1538 112.8994 31.1538 105.1973 L 31.1538 105.1641 ZM 36.4219 96.2842 C 34.8672 96.2842 33.5313 98.3555 33.5313 105.207 C 33.5313 112.0166 34.8672 114.0889 36.4512 114.0889 C 38.0313 114.0889 39.3691 112.0166 39.3691 105.207 C 39.3691 98.3555 38.0313 96.2842 36.4512 96.2842 L 36.4219 96.2842 Z" fill="#ffffff" />
		<path d="M 45.582 105.1641 C 45.582 97.4756 47.6392 94.6348 50.8789 94.6348 C 54.1191 94.6348 56.1738 97.4766 56.1738 105.1973 C 56.1738 112.8994 54.1191 115.7432 50.8789 115.7432 C 47.6392 115.7432 45.582 112.8994 45.582 105.1973 L 45.582 105.1641 ZM 50.8521 96.2842 C 49.2969 96.2842 47.9629 98.3555 47.9629 105.207 C 47.9629 112.0166 49.2969 114.0889 50.8789 114.0889 C 52.4629 114.0889 53.7988 112.0166 53.7988 105.207 C 53.7988 98.3555 52.4629 96.2842 50.8789 96.2842 L 50.8521 96.2842 Z" fill="#ffffff" />
		<path d="M 71.4395 115.3398 L 68.707 115.3398 L 64.5938 106.5938 L 63.002 106.5938 L 63.002 115.3398 L 60.627 115.3398 L 60.627 95.0381 L 64.5078 95.0381 C 67.7695 95.0381 70.4082 96.3125 70.4082 100.8271 C 70.4082 104.5557 68.5967 105.8535 66.7031 106.2314 L 71.4395 115.3398 ZM 64.8125 104.9395 C 66.791 104.9395 67.9863 103.7256 67.9863 100.8633 C 67.9863 98.0215 67.043 96.7217 64.5576 96.7217 L 62.9961 96.7217 L 62.9961 104.9395 L 64.8125 104.9395 Z" fill="#ffffff" />
		<path d="M 74.9883 115.3398 L 74.9883 95.0381 L 78.6807 95.0381 C 82.7715 95.0381 85.0381 97.3389 85.0381 105.1279 C 85.0381 112.3643 83.1924 115.3398 78.7178 115.3398 L 74.9883 115.3398 ZM 78.7441 113.6582 C 81.3096 113.6582 82.6309 111.6416 82.6309 105.1797 C 82.6309 99.1387 81.4082 96.7178 78.7285 96.7178 L 77.3457 96.7178 L 77.3457 113.6572 L 78.7441 113.6572 L 78.7441 113.6582 Z" fill="#ffffff" />
		<path d="M 15.9092 73.8525 L 15.9092 49.1191 L 22.957 49.1191 L 22.957 71.8506 L 22.957 73.2119 L 22.957 73.3057 C 23.0039 74.2119 23.6392 74.7588 24.728 74.8047 L 26 74.8047 L 37.188 74.8047 L 37.1431 81.8525 L 24.0942 81.8525 C 23.7329 81.8525 23.3232 81.8525 22.9102 81.8057 C 17.9541 81.4004 15.9092 79.0791 15.9092 73.8525 Z" fill="#ffffff" />
		<path d="M 35.416 56.166 L 35.416 49.1191 L 56.5117 49.1191 L 56.5117 56.166 L 49.4648 56.166 L 49.4648 81.8535 L 42.418 81.8535 L 42.418 56.166 L 35.416 56.166 Z" fill="#ffffff" />
		<path d="M 60.6445 56.166 C 60.6445 55.5762 60.6924 55.0298 60.8291 54.439 C 61.5986 50.71 63.6904 49.1191 68.0576 49.1191 L 76.3779 49.1191 C 81.3311 49.1191 83.6924 51.436 83.6924 56.166 L 83.6924 74.8057 C 83.7412 79.4922 81.2842 81.8535 76.3291 81.8535 L 68.0576 81.8535 C 63.5576 81.8535 61.5986 80.3525 60.8721 76.5342 C 60.7822 75.9883 60.6924 75.3994 60.6924 74.8525 C 60.6914 74.8057 60.6445 56.166 60.6445 56.166 ZM 67.7383 72.5332 C 67.7383 74.2617 68.3301 74.8047 70.0557 74.8047 L 74.374 74.8047 C 76.1006 74.8047 76.6963 74.3057 76.6963 72.7568 L 76.6963 58.439 C 76.6963 56.7109 76.0996 56.166 74.374 56.166 L 70.0557 56.166 C 68.2832 56.166 67.8271 56.7119 67.8271 58.439 L 67.7383 72.5332 Z" fill="#ffffff" />
		<path d="M 89.9883 19.4668 C 79.4199 17.7549 60.9961 17.437 52.668 17.3857 L 50.0449 8.7388 L 47.2769 17.3838 C 39.3008 17.4268 20.8398 17.7148 10 19.3892 L 10 0 L 90 0 L 89.9883 19.4668 Z" fill="#4bb4e7" />
	</g>
</svg>